<?xml version="1.0" encoding="UTF-8" standalone="no"?>
<!-- Created with Inkscape (http://www.inkscape.org/) -->

<svg
   version="1.1"
   id="svg1"
   width="246.39999"
   height="246.39999"
   viewBox="0 0 246.39999 246.39999"
   sodipodi:docname="ExMan.svg"
   inkscape:version="1.4 (86a8ad7, 2024-10-11)"
   xmlns:inkscape="http://www.inkscape.org/namespaces/inkscape"
   xmlns:sodipodi="http://sodipodi.sourceforge.net/DTD/sodipodi-0.dtd"
   xmlns="http://www.w3.org/2000/svg"
   xmlns:svg="http://www.w3.org/2000/svg">
  <defs
     id="defs1" />
  <sodipodi:namedview
     id="namedview1"
     pagecolor="#ffffff"
     bordercolor="#000000"
     borderopacity="0.25"
     inkscape:showpageshadow="2"
     inkscape:pageopacity="0.0"
     inkscape:pagecheckerboard="0"
     inkscape:deskcolor="#d1d1d1"
     showgrid="false"
     inkscape:zoom="7.3660716"
     inkscape:cx="73.919998"
     inkscape:cy="124.82909"
     inkscape:window-width="7680"
     inkscape:window-height="2054"
     inkscape:window-x="-11"
     inkscape:window-y="-11"
     inkscape:window-maximized="1"
     inkscape:current-layer="g1" />
  <g
     inkscape:groupmode="layer"
     inkscape:label="Image"
     id="g1">
    <path
       style="fill:#f37f35;fill-opacity:1"
       d="M 74.719998,236.36107 C 42.675204,222.45695 18.2893,196.26509 6.9014063,163.52 -4.0251561,132.10143 -1.7376878,97.80939 13.284373,67.831271 27.53756,39.38752 52.626053,17.422943 82.879998,6.9014063 114.29857,-4.0251561 148.5906,-1.7376878 178.56872,13.284373 c 23.41373,11.732638 42.81426,31.133172 54.5469,54.546898 17.60515,35.132939 17.60515,75.604509 0,110.737449 -10.544,21.04169 -27.41308,38.99121 -47.95031,51.02148 -3.08264,1.80575 -13.41932,6.92875 -14.84103,7.35541 l -0.71572,0.21479 -0.0843,-10.76482 -0.0843,-10.76482 -1.6,-0.56624 c -2.38269,-0.84323 -4.58437,-2.04317 -6.59979,-3.59697 -0.98989,-0.76316 -9.75371,-7.76406 -19.47516,-15.55756 -11.75757,-9.42581 -17.79752,-14.07484 -18.04021,-13.88576 -2.0096,1.56562 -13.49962,10.67215 -14.60484,11.57522 -6.67451,5.45366 -22.833516,18.2433 -24.132982,19.10093 -0.894861,0.5906 -2.74302,1.53094 -4.10702,2.08966 l -2.48,1.01585 v 10.97705 c 0,6.03738 -0.108,10.9747 -0.24,10.97182 -0.132,-0.003 -1.68,-0.63003 -3.44,-1.39369 z m 1.6,-27.1286 c 1.232,-0.35169 3.176,-1.19053 4.32,-1.86408 1.64995,-0.97144 37.920002,-29.58257 37.920002,-29.91267 0,-0.27205 -21.993135,-17.48356 -22.232144,-17.39856 -0.159022,0.0566 -2.349844,1.69289 -4.868494,3.6363 -16.983606,13.10465 -16.754323,12.94095 -18.131364,12.94456 -0.430436,0.001 -1.217242,-0.46327 -1.84,-1.08602 -1.865528,-1.86553 -1.353541,-4.05151 1.41473,-6.04031 1.809965,-1.30033 1.721757,-0.94181 2.300803,-9.35169 0.527973,-7.66812 0.53333,-7.69633 1.638576,-8.62633 1.416148,-1.19161 3.216023,-1.12477 4.508208,0.16741 l 0.981086,0.98109 -0.223164,3.73891 c -0.12274,2.0564 -0.309894,4.37292 -0.415898,5.14781 l -0.192735,1.40889 3.010197,-2.33273 c 1.655608,-1.28301 3.766197,-2.90631 4.690197,-3.60734 0.924,-0.70103 1.68,-1.37975 1.68,-1.50826 0,-0.27922 -10.714633,-8.87563 -21.92,-17.58654 -2.112,-1.64184 -4.171809,-3.36266 -4.577354,-3.82404 -1.554116,-1.76809 -3.223333,-4.59625 -3.615208,-6.12527 C 60.5428,127.11712 60.260719,126.4 60.140589,126.4 c -0.338644,0 -3.172379,6.52498 -4.337225,9.98693 -2.443056,7.26082 -4.395912,19.78461 -5.553208,35.61307 -0.873804,11.95111 0.05505,18.4624 3.590787,25.1715 2.711524,5.14515 6.380679,8.95935 10.639055,11.05963 4.13804,2.04093 7.270229,2.30583 11.84,1.00134 z m 103.991922,0.31042 c 7.12418,-1.82763 14.07662,-9.82639 16.45632,-18.93291 1.92001,-7.34744 1.71306,-16.63524 -0.78901,-35.40998 -1.61651,-12.12969 -3.36963,-18.8073 -7.01502,-26.72 l -1.1794,-2.56 -0.55864,1.76 c -1.35148,4.25788 -2.90337,6.12547 -9.13094,10.98842 -2.2902,1.78837 -6.70143,5.26758 -9.80272,7.73158 -3.10129,2.464 -6.88382,5.4505 -8.40562,6.63666 -1.52179,1.18617 -2.75981,2.26617 -2.75115,2.4 0.0134,0.20665 2.46057,2.14652 7.87614,6.24334 0.6398,0.484 1.25902,0.88 1.37604,0.88 0.11702,0 0.032,-1.62 -0.18892,-3.6 -0.62387,-5.59122 -0.58664,-6.14468 0.49475,-7.35496 0.79586,-0.89072 1.1492,-1.04504 2.39272,-1.04504 1.15279,0 1.63753,0.17854 2.30974,0.85075 0.83263,0.83263 0.86517,1.02229 1.52727,8.90023 l 0.67652,8.04946 1.48752,1.07932 c 1.9383,1.40639 2.51248,2.26933 2.51248,3.77605 0,2.31049 -2.51159,3.83765 -4.53261,2.75603 -0.35779,-0.19148 -4.05632,-2.94481 -8.21896,-6.11851 -4.16264,-3.1737 -10.01643,-7.62156 -13.00843,-9.88414 -14.95757,-11.31103 -36.6398,-27.66238 -48.96,-36.92249 -7.568002,-5.68825 -14.696002,-11.07555 -15.840002,-11.97176 -2.787089,-2.18341 -5.29561,-3.0204 -8.580607,-2.86299 -6.460727,0.30959 -11.689646,5.49665 -12.125368,12.02829 -0.309141,4.63415 1.12515,7.96206 4.650237,10.7897 4.62432,3.70938 23.683141,18.87207 37.81574,30.08518 16.6337,13.19754 35.76881,28.44233 48.86295,38.92873 4.78663,3.83335 9.53863,7.38763 10.56,7.8984 2.01126,1.00579 4.49081,1.86497 6.01705,2.08494 1.26236,0.18194 4.47319,-0.0742 6.07192,-0.4843 z m -20.92911,-64.67204 c 18.28928,-14.30716 19.39755,-15.21926 20.39277,-16.78301 4.02633,-6.32637 1.6267,-15.09967 -5.05558,-18.48376 -4.2604,-2.15758 -9.59936,-1.72048 -13.12,1.07413 -1.84309,1.46301 -19.76284,15.10756 -23.04,17.54324 -1.672,1.24268 -4.37534,3.27821 -6.00742,4.52341 l -2.96741,2.264 1.84741,1.35016 c 4.95502,3.62131 8.06995,5.9328 13.63891,10.12098 3.33486,2.508 6.15003,4.55588 6.25594,4.55085 0.10591,-0.005 3.73083,-2.77703 8.05538,-6.16 z M 132.48,124.42167 c 4.488,-3.37251 11.80301,-8.90761 16.25559,-12.30022 l 8.0956,-6.16839 -1.2156,-0.31423 c -0.66858,-0.17282 -2.72759,-0.56017 -4.57559,-0.86076 -2.98092,-0.48488 -6.0497,-0.53955 -27.2,-0.48458 -23.76863,0.0618 -24.726481,0.0983 -31.120002,1.18608 -0.66,0.11229 -1.2,0.30141 -1.2,0.42025 0,0.11885 2.7,2.2561 6,4.74946 3.300002,2.49335 10.536002,7.98545 16.080002,12.20467 5.544,4.21921 10.224,7.67766 10.4,7.68543 0.176,0.008 3.992,-2.7452 8.48,-6.11771 z M 128.64839,87.030064 C 143.60968,85.209651 156.38494,75.110617 161.42457,61.119998 165.71299,49.214819 164.06779,35.93319 156.9872,25.297315 151.30978,16.769169 142.41878,10.744061 132.32,8.5812548 128.07222,7.6715288 120.49527,7.592046 116.41286,8.4143876 102.86744,11.142911 91.928222,20.103237 86.837015,32.639999 83.338753,41.254239 83.069521,50.947583 86.073225,60.139271 89.654761,71.099197 98.39112,80.174793 109.6,84.579599 c 2.52696,0.993031 7.35992,2.203253 10.24,2.564195 2.04058,0.255734 6.21486,0.201837 8.80839,-0.11373 z"
       id="path1" />
  </g>
</svg>
